<?xml version="1.0" encoding="UTF-8" standalone="no"?>
<!DOCTYPE svg PUBLIC "-//W3C//DTD SVG 1.1//EN" "http://www.w3.org/Graphics/SVG/1.1/DTD/svg11.dtd">
<svg width="100%" height="100%" viewBox="0 0 229 346" version="1.1" xmlns="http://www.w3.org/2000/svg" xmlns:xlink="http://www.w3.org/1999/xlink" xml:space="preserve" xmlns:serif="http://www.serif.com/" style="fill-rule:evenodd;clip-rule:evenodd;stroke-linejoin:round;stroke-miterlimit:2;">
    <g id="rect1017" transform="matrix(0.694407,0,0,0.852201,-277.162,-104.642)">
        <rect x="399.134" y="122.791" width="329.778" height="406.007" style="fill:rgb(238,238,238);"/>
    </g>
    <g transform="matrix(0.404297,0,0,0.404297,11.0002,69.5)">
        <g id="XMLID_25_">
            <g>
                <g>
                    <path d="M324.156,335.724L280.549,235.61L236.931,335.724L324.156,335.724ZM434.781,121.952L434.781,500.512L132.451,500.512C131.969,500.512 131.486,500.501 131.004,500.489L131.004,123.491L131.027,121.929C131.498,121.94 131.98,121.952 132.451,121.952L434.781,121.952Z" style="fill:rgb(242,213,159);fill-rule:nonzero;"/>
                </g>
                <g>
                    <path d="M382.122,85.134C380.077,79.379 378.974,73.187 378.974,66.731L378.974,66.72C378.974,36.22 403.707,11.488 434.206,11.488L434.781,11.488L434.781,121.952L434.206,121.952C410.163,121.952 389.692,106.581 382.122,85.134Z" style="fill:rgb(142,202,193);fill-rule:nonzero;"/>
                </g>
                <g>
                    <path d="M382.122,85.134C389.692,106.581 410.163,121.952 434.206,121.952L132.451,121.952C131.98,121.952 131.498,121.94 131.027,121.929C101.182,121.182 77.219,96.76 77.219,66.731L77.219,66.72C77.219,36.22 101.952,11.488 132.463,11.488L434.206,11.488C403.707,11.488 378.974,36.22 378.974,66.72L378.974,66.731C378.974,73.187 380.077,79.379 382.122,85.134Z" style="fill:rgb(255,113,36);fill-rule:nonzero;"/>
                </g>
                <g>
                    <path d="M280.549,235.61L324.156,335.724L236.931,335.724L280.549,235.61Z" style="fill:rgb(242,213,159);fill-rule:nonzero;"/>
                </g>
                <g>
                    <path d="M131.027,121.929L131.004,123.491L131.004,500.489C101.171,499.72 77.219,475.297 77.219,445.28L77.219,66.731C77.219,96.76 101.182,121.182 131.027,121.929Z" style="fill:rgb(142,202,193);fill-rule:nonzero;"/>
                </g>
            </g>
            <g>
                <g>
                    <path d="M434.781,133.439L132.451,133.439C131.885,133.439 131.306,133.427 130.74,133.413C113.278,132.976 96.932,125.846 84.715,113.337C72.473,100.806 65.732,84.254 65.732,66.731C65.732,29.93 95.667,0 132.463,0L434.781,0C441.124,0 446.268,5.143 446.268,11.488C446.268,17.832 441.124,22.975 434.781,22.975L132.463,22.975C108.336,22.975 88.707,42.599 88.707,66.72C88.707,90.646 107.422,109.847 131.314,110.445C131.69,110.454 132.076,110.464 132.451,110.464L434.781,110.464C441.124,110.464 446.268,115.607 446.268,121.952C446.268,128.296 441.124,133.439 434.781,133.439Z" style="fill:rgb(94,42,65);fill-rule:nonzero;"/>
                </g>
                <g>
                    <path d="M434.781,133.439C428.437,133.439 423.293,128.296 423.293,121.952L423.293,11.488C423.293,5.143 428.437,0 434.781,0C441.124,0 446.268,5.143 446.268,11.488L446.268,121.952C446.268,128.296 441.124,133.439 434.781,133.439Z" style="fill:rgb(94,42,65);fill-rule:nonzero;"/>
                </g>
                <g>
                    <path d="M131.004,511.989C124.661,511.989 119.516,506.857 119.516,500.512L119.516,123.491C119.516,117.147 124.661,112.004 131.004,112.004C137.347,112.004 142.492,117.147 142.492,123.491L142.492,500.489C142.492,506.834 137.349,511.989 131.004,511.989Z" style="fill:rgb(94,42,65);fill-rule:nonzero;"/>
                </g>
                <g>
                    <path d="M77.219,456.768C70.876,456.768 65.732,451.625 65.732,445.28L65.732,66.731C65.732,60.387 70.876,55.244 77.219,55.244C83.563,55.244 88.707,60.387 88.707,66.731L88.707,445.28C88.707,451.625 83.564,456.768 77.219,456.768Z" style="fill:rgb(94,42,65);fill-rule:nonzero;"/>
                </g>
                <g>
                    <path d="M434.781,512C428.437,512 423.293,506.857 423.293,500.512L423.293,122.182C423.293,115.837 428.437,110.694 434.781,110.694C441.124,110.694 446.268,115.837 446.268,122.182L446.268,500.512C446.268,506.857 441.124,512 434.781,512Z" style="fill:rgb(94,42,65);fill-rule:nonzero;"/>
                </g>
                <g>
                    <path d="M324.167,347.211L236.931,347.211C230.587,347.211 225.443,342.068 225.443,335.724C225.443,329.379 230.587,324.236 236.931,324.236L324.156,324.236C330.499,324.236 335.649,329.379 335.649,335.724C335.649,342.068 330.511,347.211 324.167,347.211Z" style="fill:rgb(94,42,65);fill-rule:nonzero;"/>
                </g>
                <g>
                    <path d="M211.848,404.778C210.315,404.778 208.76,404.47 207.265,403.818C201.449,401.284 198.787,394.515 201.322,388.698L270.017,231.02C272.552,225.203 279.323,222.543 285.137,225.078C290.953,227.612 293.615,234.382 291.081,240.198L222.385,397.876C220.502,402.199 216.28,404.778 211.848,404.778Z" style="fill:rgb(94,42,65);fill-rule:nonzero;"/>
                </g>
                <g>
                    <path d="M349.239,404.778C344.807,404.778 340.585,402.197 338.701,397.876L270.017,240.197C267.484,234.38 270.145,227.611 275.962,225.078C281.776,222.543 288.548,225.205 291.081,231.023L359.765,388.7C362.299,394.516 359.638,401.285 353.821,403.819C352.327,404.47 350.77,404.778 349.239,404.778Z" style="fill:rgb(94,42,65);fill-rule:nonzero;"/>
                </g>
                <g>
                    <path d="M382.133,96.622L295.678,96.622C289.335,96.622 284.19,91.479 284.19,85.134C284.19,78.79 289.335,73.647 295.678,73.647L382.122,73.647C388.466,73.647 393.615,78.79 393.615,85.134C393.615,91.479 388.477,96.622 382.133,96.622Z" style="fill:rgb(94,42,65);fill-rule:nonzero;"/>
                </g>
                <g>
                    <path d="M378.974,59.804L201.48,59.804C195.137,59.804 189.993,54.661 189.993,48.317C189.993,41.972 195.137,36.829 201.48,36.829L378.974,36.829C385.318,36.829 390.462,41.972 390.462,48.317C390.462,54.661 385.318,59.804 378.974,59.804Z" style="fill:rgb(94,42,65);fill-rule:nonzero;"/>
                </g>
                <g>
                    <path d="M434.781,512L132.451,512C131.876,512 131.299,511.987 130.724,511.974C113.253,511.522 96.915,504.386 84.703,491.877C72.469,479.344 65.731,462.797 65.731,445.28C65.731,438.936 70.875,433.793 77.218,433.793C83.562,433.793 88.706,438.936 88.706,445.28C88.706,469.184 107.415,488.39 131.299,489.007C131.673,489.016 132.061,489.026 132.45,489.026L434.78,489.026C441.123,489.026 446.267,494.169 446.267,500.514C446.268,506.857 441.124,512 434.781,512Z" style="fill:rgb(94,42,65);fill-rule:nonzero;"/>
                </g>
                <g>
                    <path d="M434.206,133.439C405.964,133.439 380.68,115.564 371.289,88.958C368.769,81.865 367.486,74.378 367.486,66.731C367.487,29.93 397.416,0 434.206,0C440.55,0 445.694,5.143 445.694,11.488C445.694,17.832 440.55,22.975 434.206,22.975C410.086,22.975 390.462,42.599 390.462,66.72C390.462,71.75 391.297,76.648 392.947,81.288C399.11,98.748 415.687,110.464 434.206,110.464C440.55,110.464 445.694,115.607 445.694,121.952C445.694,128.296 440.55,133.439 434.206,133.439Z" style="fill:rgb(94,42,65);fill-rule:nonzero;"/>
                </g>
            </g>
        </g>
    </g>
</svg>
